With: Viggo Mortensen, Naomi Watts and Vincent Cassel

In London, the Russian pregnant teenager Tatiana arrives bleeding in a hospital, and the doctors save her baby only. The Russian descendant midwife Anna Khitrova finds Tatiana's diary written in Russian language in her belongings and decided to find her family to deliver the baby, she brings the diary home and ask her uncle Stepan to translate the document. Stepan refuses, but Anna finds a card of a restaurant owned by the Russian Semyon inside the diary and she visits the old man trying to find a lead to contact Tatiana's family. When she mentions the existence of the diary, Semyon immediately offers to translate the document. However, Stepan translates part of the diary and Anna discovers that Semyon and his sick son Kirill had raped Tatiana when she was fourteen years old and forced her to work as prostitute in a brothel of their own. Further, Semyon is the dangerous boss of the Russian mafia "Vory v Zakone"...

General:

Complete name                    : Eastern Prommises\Eastern Prommises.avi
Format                           : AVI
Format/Info                      : Audio Video Interleave
File size                        : 1.48 GiB
Duration                         : 1h 33mn
Overall bit rate                 : 2 270 Kbps

Video:

Format                           : MPEG-4 Visual
Format profile                   : Simple@L3
Format settings, BVOP            : No
Format settings, QPel            : No
Format settings, GMC             : No warppoints
Format settings, Matrix          : Default (H.263)
Codec ID                         : XVID
Codec ID/Hint                    : XviD
Duration                         : 1h 33mn
Bit rate                         : 1 811 Kbps
Width                            : 704 pixels
Height                           : 396 pixels
Display aspect ratio             : 16:9
Frame rate                       : 25.000 fps
Color space                      : YUV
Chroma subsampling               : 4:2:0
Bit depth                        : 8 bits
Scan type                        : Progressive
Bits/(Pixel*Frame)               : 0.260
Stream size                      : 1.18 GiB (80%)
Writing library                  : XviD 1.1.2 (UTC 2006-11-01)

Audio:

Format                           : AC-3
Format/Info                      : Audio Coding 3
Mode extension                   : CM (complete main)
Codec ID                         : 2000
Duration                         : 1h 33mn
Bit rate mode                    : Constant
Bit rate                         : 448 Kbps
Channel(s)                       : 6 channels
Channel positions                : Front: L C R, Side: L R, LFE
Sampling rate                    : 48.0 KHz
Bit depth                        : 16 bits
Stream size                      : 299 MiB (20%)
Alignment                        : Aligned on interleaves
Interleave, duration             : 32 ms (0.80 video frame)

